<?xml version="1.0" encoding="utf-8"?>
<!-- Generator: Adobe Illustrator 19.1.0, SVG Export Plug-In . SVG Version: 6.00 Build 0)  -->
<svg version="1.1" xmlns="http://www.w3.org/2000/svg" xmlns:xlink="http://www.w3.org/1999/xlink" x="0px" y="0px"
	 viewBox="0 0 64 64" style="enable-background:new 0 0 64 64;" xml:space="preserve">
<style type="text/css">
	.st0{fill:#E0E0D1;}
	.st1{opacity:0.2;}
	.st2{fill:#231F20;}
	.st3{fill:#4F5D73;}
	.st4{fill:#C75C5C;}
	.st5{fill:#F5CF87;}
</style>
<g id="Layer_1">
	<g>
		<circle class="st0" cx="32" cy="32" r="32"/>
	</g>
	<g class="st1">
		<path class="st2" d="M52,44c0,2.2-1.8,4-4,4H16c-2.2,0-4-1.8-4-4V26c0-2.2,1.8-4,4-4h32c2.2,0,4,1.8,4,4V44z"/>
	</g>
	<g>
		<path class="st3" d="M38,17v20H26V17H38 M38,13H26c-2.2,0-4,1.8-4,4v20c0,2.2,1.8,4,4,4h12c2.2,0,4-1.8,4-4V17
			C42,14.8,40.2,13,38,13L38,13z"/>
	</g>
	<g>
		<g>
			<path class="st4" d="M12,29v13c0,2.2,1.8,4,4,4h32c2.2,0,4-1.8,4-4V29H12z"/>
		</g>
	</g>
	<g>
		<path class="st5" d="M36,28v3h-8v-3H36 M36,24h-8c-2.2,0-4,1.8-4,4v3c0,2.2,1.8,4,4,4h8c2.2,0,4-1.8,4-4v-3C40,25.8,38.2,24,36,24
			L36,24z"/>
	</g>
	<g class="st1">
		<path class="st2" d="M52,26c0-2.2-1.8-4-4-4H16c-2.2,0-4,1.8-4,4v5h40V26z"/>
	</g>
	<g>
		<path class="st4" d="M52,24c0-2.2-1.8-4-4-4H16c-2.2,0-4,1.8-4,4v5h40V24z"/>
	</g>
</g>
<g id="Layer_2">
</g>
</svg>
